HIERARCHY
ROOT Hips
{
	OFFSET	0.000000	0.000000	0.000000
	CHANNELS 6 Xposition Yposition Zposition Zrotation Xrotation Yrotation
	JOINT LeftHip
	{
		OFFSET	4.740440	-3.195970	-0.322709
		CHANNELS 3 Zrotation Xrotation Yrotation
		JOINT LeftKnee
		{
			OFFSET	-1.605680	-15.592300	1.005510
			CHANNELS 3 Zrotation Xrotation Yrotation
			JOINT LeftAnkle
			{
				OFFSET	-0.632401	-16.421000	-1.413730
				CHANNELS 3 Zrotation Xrotation Yrotation
				End Site
				{
					OFFSET	0.008423	-3.933000	-2.776750
				}
			}
		}
	}
	JOINT RightHip
	{
		OFFSET	-4.740440	-3.195970	-0.322709
		CHANNELS 3 Zrotation Xrotation Yrotation
		JOINT RightKnee
		{
			OFFSET	1.605680	-15.592300	1.005510
			CHANNELS 3 Zrotation Xrotation Yrotation
			JOINT RightAnkle
			{
				OFFSET	0.632401	-16.421000	-1.413730
				CHANNELS 3 Zrotation Xrotation Yrotation
				End Site
				{
					OFFSET	-0.008423	-3.933000	-2.776750
				}
			}
		}
	}
	JOINT Chest
	{
		OFFSET	0.000000	3.468200	0.078401
		CHANNELS 3 Zrotation Xrotation Yrotation
		JOINT LeftCollar
		{
			OFFSET	3.857650	15.070700	-0.011583
			CHANNELS 3 Zrotation Xrotation Yrotation
			JOINT LeftShoulder
			{
				OFFSET	3.979720	-1.940530	-0.165223
				CHANNELS 3 Zrotation Xrotation Yrotation
				JOINT LeftElbow
				{
					OFFSET	0.615844	-10.986600	-0.673886
					CHANNELS 3 Zrotation Xrotation Yrotation
					JOINT LeftWrist
					{
						OFFSET	0.826843	-10.854500	1.034220
						CHANNELS 3 Zrotation Xrotation Yrotation
						End Site
						{
							OFFSET	-1.679080	-8.456540	0.936217
						}
					}
				}
			}
		}
		JOINT RightCollar
		{
			OFFSET	-3.857650	15.070700	-0.011583
			CHANNELS 3 Zrotation Xrotation Yrotation
			JOINT RightShoulder
			{
				OFFSET	-3.979720	-1.940530	-0.165223
				CHANNELS 3 Zrotation Xrotation Yrotation
				JOINT RightElbow
				{
					OFFSET	-0.615845	-10.986600	-0.673886
					CHANNELS 3 Zrotation Xrotation Yrotation
					JOINT RightWrist
					{
						OFFSET	-0.826843	-10.854500	1.034220
						CHANNELS 3 Zrotation Xrotation Yrotation
						End Site
						{
							OFFSET	1.679080	-8.456540	0.936217
						}
					}
				}
			}
		}
		JOINT Neck
		{
			OFFSET	0.000000	15.101400	0.055730
			CHANNELS 3 Zrotation Xrotation Yrotation
			JOINT Head
			{
				OFFSET	0.000000	4.185120	1.488260
				CHANNELS 3 Zrotation Xrotation Yrotation
				End Site
				{
					OFFSET	0.000000	7.773420	-0.106016
				}
			}
		}
	}
}
MOTION
Frames:    17
Frame Time: 0.016667
8.114365	38.276318	30.826990	-0.788573	-12.493102	12.099493	18.465185	-11.330791	-0.667030	-17.207937	43.039112	6.144814	-0.925629	-2.874282	-0.837994	6.453949	8.838542	-4.283954	4.704136	8.490699	-11.682665	-9.172205	-8.341377	-7.664662	4.915504	7.769404	3.947627	-4.685819	-7.612085	-2.136754	-3.726298	-23.577192	-12.345181	30.846691	-130.092636	38.319523	3.049575	-19.939804	-7.904179	-3.693865	-1.330997	3.192706	-2.880466	-1.771299	-5.858938	5.129700	-13.545849	4.863209	-7.154652	-8.455630	6.250437	-4.096973	10.534838	1.744570	3.028161	1.719587	-8.488564	
8.132023	38.297844	30.945332	-0.767805	-12.130216	11.945217	18.095753	-11.802485	-0.517127	-16.501352	41.444000	6.400021	-1.442766	-2.796794	-0.793075	6.366500	8.823861	-4.211661	4.635611	8.204414	-11.616904	-9.106429	-8.346183	-7.582344	4.818942	7.307304	3.901879	-4.912142	-7.584797	-2.062305	-3.681412	-23.316141	-12.085334	30.990700	-130.425598	38.588936	3.152427	-19.887428	-8.257134	-3.745271	-1.510545	3.275873	-2.689856	-1.498288	-5.808261	5.111337	-13.728346	4.827786	-7.545034	-8.392580	6.412895	-4.242994	10.713717	2.066896	2.921506	2.297308	-8.631131	
8.141191	38.320107	31.073915	-0.732376	-11.786974	11.762361	17.730412	-12.127966	-0.319839	-15.755211	39.631485	6.562954	-1.935163	-2.659389	-0.735157	6.266172	8.877047	-4.116577	4.600571	7.860140	-11.507754	-9.058680	-8.333880	-7.536204	4.743713	6.900890	3.861552	-5.198067	-7.612686	-1.979807	-3.593581	-23.002035	-11.692169	31.167534	-130.774597	38.948967	3.100368	-19.818426	-8.797332	-3.945807	-1.647070	3.348848	-2.239694	-1.362817	-5.789811	4.907336	-13.718772	4.841799	-8.481542	-8.351993	6.663500	-4.349573	11.088549	2.078287	2.832446	2.971685	-8.425813	
8.170807	38.345604	31.193773	-0.673581	-11.462757	11.542267	17.334429	-12.408598	-0.049843	-14.974966	37.738544	6.699840	-2.460893	-2.467362	-0.693189	6.073056	8.923282	-4.001636	4.598492	7.571774	-11.420498	-8.922718	-8.331463	-7.412132	4.615592	6.528288	3.851633	-5.307563	-7.614867	-1.819456	-3.668780	-22.691101	-11.421472	31.215605	-131.013962	39.081966	2.905615	-19.775553	-9.355746	-4.119990	-1.819463	3.363189	-1.790067	-1.239781	-5.637568	4.635093	-13.533774	4.943124	-8.902289	-8.280585	6.996710	-4.432691	11.478766	1.979887	2.800718	3.968919	-8.084580	
8.224751	38.372925	31.302702	-0.612412	-11.169207	11.316019	16.973648	-12.650470	0.245151	-14.243778	35.762207	6.844882	-2.967713	-2.284445	-0.622708	5.837029	8.964781	-3.894121	4.590517	7.339138	-11.320840	-8.736651	-8.344437	-7.281076	4.477971	6.157919	3.804277	-5.304644	-7.621116	-1.574696	-3.796837	-22.411503	-11.333880	31.096645	-131.035934	38.875801	2.747578	-19.701101	-9.687209	-4.269619	-1.964178	3.426359	-1.438276	-1.295848	-5.416835	4.376995	-13.077688	5.132633	-9.124107	-8.204886	7.541597	-4.505443	11.795294	1.955937	2.801237	5.359213	-7.782815	
8.248208	38.394909	31.395939	-0.563589	-10.853645	11.109585	16.625751	-12.947149	0.444481	-13.579840	33.778793	7.106393	-3.483552	-2.152740	-0.569729	5.629291	8.936296	-3.775792	4.652307	7.116035	-11.272517	-8.655534	-8.368287	-7.150812	4.291600	5.700203	3.714164	-5.255325	-7.558817	-1.278995	-3.767331	-22.251226	-11.251166	30.977303	-131.002441	38.768497	2.672285	-19.559917	-9.956800	-4.309133	-2.034059	3.506074	-1.233740	-1.301220	-5.237424	4.211083	-12.613369	5.649116	-9.175969	-8.168304	8.377275	-4.517286	11.995780	2.138226	2.850837	7.025727	-7.627636	
8.284466	38.404640	31.501797	-0.616408	-10.463049	10.944959	16.411039	-13.347334	0.595695	-13.014134	31.811968	7.416948	-3.941156	-2.079148	-0.514573	5.562431	8.754179	-3.703371	4.611949	7.031377	-11.132596	-8.569818	-8.461342	-7.165716	4.121164	5.189895	3.605370	-5.124540	-7.557606	-1.033116	-3.682178	-22.136522	-11.091931	31.003950	-130.945038	38.846699	2.610910	-19.435074	-10.122705	-4.173114	-2.063972	3.563537	-1.195030	-1.355751	-5.114090	4.085968	-12.125663	6.412076	-9.198665	-8.191730	9.519076	-4.442143	11.932797	2.655130	3.021726	8.849563	-7.909498	
8.294806	38.409008	31.607124	-0.654504	-10.157775	10.813237	16.276011	-13.767103	0.788210	-12.553176	29.973494	7.693034	-4.391706	-1.928986	-0.428147	5.526452	8.683036	-3.716012	4.619554	6.904883	-10.971177	-8.550704	-8.541453	-7.150058	3.987898	4.773023	3.524572	-5.043950	-7.538741	-0.892873	-3.550648	-22.063643	-10.968104	31.072275	-130.824829	38.925243	2.631816	-19.288326	-9.953313	-4.009127	-2.038870	3.576087	-1.262913	-1.310702	-4.949710	3.975090	-11.758073	7.257825	-9.273624	-8.291892	10.837625	-4.387412	12.027473	2.904874	3.233092	10.299371	-7.972418	
8.321739	38.410271	31.693401	-0.695537	-10.007671	10.742737	16.182722	-14.123575	0.840125	-12.182580	28.255671	8.078449	-4.826221	-1.685365	-0.273912	5.497680	8.730464	-3.824650	4.627866	6.825660	-10.761421	-8.477266	-8.624863	-7.149545	3.887642	4.524911	3.447274	-4.848265	-7.446618	-0.802866	-3.480359	-21.937840	-10.947159	31.055853	-130.734406	38.946918	2.636943	-19.172415	-9.605193	-3.755893	-1.933126	3.596051	-1.419266	-1.341050	-4.844244	3.832824	-11.378584	8.141732	-9.423968	-8.434641	12.149469	-3.760887	11.729594	3.971003	3.190559	11.774935	-9.042045	
8.354657	38.399101	31.782145	-0.833761	-10.006894	10.697691	16.248413	-14.371195	0.865799	-11.869782	26.622301	8.394588	-5.194340	-1.396125	-0.092175	5.654203	8.905135	-3.915248	4.549539	6.763200	-10.626038	-8.402865	-8.740220	-7.155201	3.878759	4.542661	3.434864	-4.596798	-7.305747	-0.854775	-3.414645	-21.869459	-10.922751	31.000437	-130.677002	38.957211	2.617769	-19.052790	-9.109942	-3.497810	-1.767091	3.499056	-1.584932	-1.455754	-4.709187	3.724767	-11.023324	8.972446	-9.729201	-8.622687	13.285788	-3.239131	11.997512	4.220976	3.239885	12.335583	-9.345181	
8.380907	38.380383	31.869247	-1.031340	-10.080256	10.675845	16.518744	-14.630405	0.947115	-11.674706	25.174494	8.634275	-5.581708	-1.119442	0.065827	5.832606	9.157083	-3.867984	4.626590	6.650764	-10.661592	-8.420813	-8.845854	-7.178225	3.974269	4.699871	3.411581	-4.369388	-7.125542	-0.950234	-3.352148	-21.817532	-10.911984	30.994143	-130.613724	39.013889	2.626044	-18.925066	-8.602040	-3.197505	-1.501006	3.391478	-1.840683	-1.643594	-4.594617	3.635362	-10.629168	9.713428	-10.166709	-8.822176	14.132270	-2.693530	12.742940	4.105203	3.152531	12.178541	-9.260551	
8.418386	38.354004	31.939032	-1.260346	-10.337290	10.719130	16.839149	-14.785227	0.943308	-11.504250	23.873449	8.798306	-5.888865	-0.835661	0.220653	6.064525	9.539462	-3.835053	4.713137	6.595337	-10.769579	-8.405913	-8.969172	-7.206634	4.228771	5.161273	3.345335	-4.238692	-7.004821	-1.107318	-3.315729	-21.732779	-10.841142	31.138041	-130.592346	39.170822	2.609720	-18.892252	-8.153549	-2.937663	-1.264742	3.240861	-2.087460	-1.810229	-4.555942	3.491884	-10.205627	10.365822	-10.670938	-9.013990	14.623022	-1.987117	13.539881	4.003191	2.765657	11.579958	-9.230221	
8.460909	38.318596	32.007805	-1.539353	-10.682536	10.752063	17.182163	-14.926909	0.958275	-11.286358	22.747036	8.809793	-6.187213	-0.519829	0.342972	6.357744	9.963559	-3.793132	4.800630	6.614477	-10.893489	-8.377530	-9.124022	-7.243521	4.599181	5.786914	3.300395	-4.184178	-6.928063	-1.281416	-3.324796	-21.685036	-10.897762	31.289063	-130.529724	39.272110	2.642898	-18.886658	-7.886343	-2.725493	-1.052918	3.076609	-2.292318	-1.931425	-4.578259	3.317543	-9.715330	10.909798	-11.300093	-9.119889	14.709802	-1.832273	13.363291	3.949482	2.768455	11.563887	-9.214514	
8.522715	38.286560	32.091766	-1.818126	-10.937520	10.739775	17.479425	-15.189436	1.023145	-11.012999	21.762377	8.776175	-6.467533	-0.173046	0.450924	6.608568	10.312819	-3.763109	4.854965	6.663382	-10.944624	-8.302110	-9.301655	-7.282354	4.931758	6.419307	3.274394	-4.152837	-6.985202	-1.424744	-3.397927	-21.651079	-11.019106	31.461054	-130.411591	39.370632	2.745119	-18.920006	-7.674516	-2.496932	-0.983895	3.050348	-2.431914	-1.953061	-4.701705	3.060427	-9.029626	11.217757	-11.994980	-9.234028	14.514769	-1.619924	13.141212	3.983087	2.640847	11.266815	-9.308362	
8.584398	38.263538	32.177574	-2.024275	-11.022425	10.688786	17.644356	-15.558514	1.203579	-10.688080	20.865541	8.647091	-6.711579	0.208806	0.574767	6.754467	10.471636	-3.732317	4.866849	6.774463	-10.930513	-8.201860	-9.489113	-7.320580	5.116938	6.878820	3.329012	-4.126486	-7.045102	-1.525293	-3.450602	-21.691299	-11.176256	31.558722	-130.305771	39.508804	2.811551	-18.940577	-7.439761	-2.340567	-0.930752	3.075069	-2.376664	-1.912439	-4.812813	2.731355	-8.108603	11.199093	-12.734862	-9.313127	14.263867	-1.491570	12.956662	3.928172	2.567833	10.961124	-9.366568	
8.653671	38.259995	32.274117	-2.088576	-10.912490	10.590462	17.604040	-16.015810	1.545098	-10.272215	20.017115	8.475996	-6.871304	0.702776	0.701969	6.670644	10.491495	-3.642388	4.902177	6.860628	-10.874303	-8.092611	-9.660920	-7.352404	5.091468	7.132502	3.462070	-4.123532	-7.109299	-1.607144	-3.559507	-21.807657	-11.351080	31.623882	-130.197754	39.627460	2.842353	-18.933908	-7.261079	-2.260089	-0.918968	3.161515	-2.158959	-1.752472	-4.840491	2.301528	-6.974359	10.957474	-13.406632	-9.286511	13.962385	-1.456342	12.989116	3.843141	2.498585	10.429810	-9.533468	
8.725207	38.269318	32.365326	-2.068689	-10.718412	10.471733	17.476732	-16.437050	1.948218	-9.887970	19.155050	8.383787	-6.908758	1.290236	0.826301	6.500212	10.458227	-3.563314	4.871022	6.896963	-10.768173	-7.947026	-9.783944	-7.368209	4.970623	7.264656	3.571292	-4.174887	-7.186940	-1.641355	-3.624674	-21.984125	-11.462996	31.743240	-130.172867	39.788933	2.989658	-18.920244	-7.152254	-2.285148	-0.881069	3.284382	-1.801608	-1.614584	-4.819053	1.792519	-5.640443	10.645016	-13.901672	-9.085077	13.875828	-1.546678	12.858416	3.832291	2.545216	10.093235	-9.725638	
